<svg xmlns="http://www.w3.org/2000/svg" xmlns:xlink="http://www.w3.org/1999/xlink" width="328" height="30.955" viewBox="0 0 328 30.955">
    <g clip-path="url(#clip-path)">
        <path id="Tracciato_6" d="M260.645,790.718c-1.007-.069-.781,1.083-1.791,1.016-.985-.7-2.962-1.707-4.094-.761.355,1.171,1.625,1.436,2.048,2.537-.328,1.2-3.162.339-4.095.508-.358-1.286,1.177-.7,1.024-1.777a6.277,6.277,0,0,0-4.35-2.792c-.1,1.315-.089,2.249-1.535,1.776-.323-1.253.645-1.222,1.279-1.523-.731-1.133-3.869-1.423-5.116-.506,1.139,1.577,1.106,4.314,3.071,5.074V796.3c.376.131.643.372,1.024.507,3.859,7.009,8.22,14.194,12.279,21.57,1.305,2.373,2.13,4.662,4.092,6.342-.008,1.111-.048,1.889.77,2.539a36.253,36.253,0,0,1,6.945,7.413V810.654c-3.928-6.57-7.551-13.442-11.553-19.936" transform="translate(-109.562 -779.017)" fill="#ee7203"/>
        <path id="Tracciato_7" d="M237.552,851.2h1.024c.406,1.181-1.321.88-1.024,0m-5.37-9.391c.209.636.7,1,.765,1.779-1.2.359-1.792-1.477-.765-1.779m-31.471-46.182a4.028,4.028,0,0,1,.513-2.284c1.3.318,2.966.271,3.326,1.521-1.162.374-2.575.492-3.839.763m-1.791-5.583c.679.258,1.454.418,1.537,1.268-1.242.322-2.229-.454-1.537-1.268m5.117,2.538c-.53-.15-1.681.313-1.788-.254.344-.346,1.784-.484,1.788.254m37.354,59.378c.167-4.906-3.738-7.278-4.606-11.925-.755-.351-1.036-1.173-1.79-1.524-9.421-16.708-18.947-33.314-28.91-49.482-4.206.04-9.63-.437-14.073,0,.811,2.174,2.163,5.963,4.351,7.614a435.292,435.292,0,0,0,24.558,42.123v-2.282c1.534.113.486,2.359.258,3.042,2.524,6.124,6.278,11.028,9.468,16.492,4.357.258,5.9-1.094,8.441-2.282.942.913-.992,1.575-.257,2.282,1.851.4,3.762-.2,6.142,0-.793-1.75-1.368-3.717-3.582-4.058" transform="translate(-86.212 -779.104)" fill="#ee7203"/>
        <path id="Tracciato_8" d="M180.943,845.6a1.445,1.445,0,0,1-.766-1.521c.33-.349,1.111-.25,1.791-.253,0,.937-.115,1.746-1.024,1.774m-6.139,1.524c-.053-.284-.285-.4-.51-.508-.383-2.412,1.743-1.7,2.045-.253a1.465,1.465,0,0,1-1.535.761m-5.373-12.434a9.42,9.42,0,0,1-.512-2.285c1.126-.871,1.78.486,2.049,1.27-.843.008-.613,1.085-1.537,1.014m-18.418-41.869c-.609-1.472.9-1.638,2.045-1.016.036,1.05-1.267.77-2.045,1.016M185.3,847.887c0-1.009.993-1.043,1.787-1.27-.309-2.822-2.707-3.573-2.813-6.6-.489-.479-.462.149-1.278,0,.1-1.346-1.006-2.16,0-3.046-2.973-.775-2.2-5.265-4.86-6.343-.214-.718.359-.66.255-1.268.824-.058,1.081.445,2.044.25-.038-.293.06-.45.257-.507.516-1.438-1.223-.648-1.023-1.776.407-.529,1.791-.088,2.3-.508.251-2.685-3.794-4.114-4.861-1.778.251,1.412,2.152,2.362,1.279,4.061-2.118-.778-2.735-3.038-3.329-5.327-5.923-7.657-9.861-17.285-15.6-25.123-.58.124-1.306.5-1.793,0-1.095-.622-.332-1.642-.508-2.539-.493-2.51-2.322-4.538-3.071-6.85a5.313,5.313,0,0,0-2.3,0c-.627.6.383.473.256,1.268a2.573,2.573,0,0,1-1.537.761c-.872-.4-.7-1.079-.509-2.029-2.972-.762-6.821-.437-9.98,0,7.256,15.136,16.364,28.431,24.05,43.138.126.8-.462.9-.253,1.777.883-.2,1.078.282,1.533.508,2.626,1.877,3.307,5.683,6.14,7.359.935,3.936,4.029,6.938,4.351,10.656,1.317.726,1.734,2.339,2.811,3.3,1.757-.011,3.021.493,4.351-.251,1.038-.049-.271-1.417,1.022-1.524,1.674,1.69,5.335,2.3,8.7,1.524-1.17-2.986-3.28-5.038-4.092-8.375-1.5-.214-1.749.8-3.325.509" transform="translate(-62.863 -779.09)" fill="#ee7203"/>
        <path id="Tracciato_9" d="M75.85,844.518a3.982,3.982,0,0,1-1.534-3.04c1.775-.329,2.1.79,2.813,1.521-.261.673-.42,1.442-1.279,1.52m-1.794-3.8a3.25,3.25,0,0,1-2.3-1.523c.055-.285.282-.394.512-.507.816.383,2.314,1.124,1.787,2.03M39.009,794.275a5,5,0,0,1,0-4.059c2.678-.894,1.809,3.795,0,4.059M83.525,846.55c-1.385-.995-2.292-2.46-3.582-3.551-.168.744-.812,1.859-1.791,1.013.151-1.007.747-1.852,1.791-1.268-.931-1.7-1.475-3.782-3.324-4.568-.84-5.891-5.7-9.878-7.165-15.985-7.817-10.1-13.648-22.16-20.467-33.244-1.347-.653-3.357-.013-4.605.255-.5.38.446,1.066-.514,1.268-1.27.017-.164-.744-.763-1.268-2.686-.271-6.22-.858-8.958-.255,3.152,4.614,5.247,9.16,8.445,14.72,2.515,4.366,5.224,7.1,5.629,11.925,3.8,1.306,4.011,6.169,6.905,8.374.276,2.878,2.588,5.582,4.093,7.613,1.168,1.573,1.566,3.848,2.561,5.074.282.349,1.047.383,1.281.764,1.531,2.541,1.954,5.612,4.091,7.864.99.223.909-.618,1.535-.761,1.077.541,1.434,1.792,1.28,3.554,1.9.217,2.3-.832,3.579,0,.141.921-.08,2.057.511,3.046.975.543,2.813-.836,3.585.253-.478.956-2,.778-3.072.507a4.666,4.666,0,0,1-2.044,2.03c.107,1.332.527,2.351,2.044,2.285.829-.479-.116-1.249.514-2.031h1.023c1.1.2-.233,1.23.512,1.775,1.407.3.194-2,1.278-2.028,1.214.065,1.385,1.163,1.79,2.028,1.427-.2,2.264.57,3.326,0a2.55,2.55,0,0,0-1.533-.759,10.946,10.946,0,0,0-.257-3.552,25.192,25.192,0,0,0,4.347.253c.144-1.156-.964-1.073-.768-2.284.242-1.537,2.572-1.005,3.073-2.283-.147-1.434-3.21-1.135-4.35-.761" transform="translate(-15.332 -779.023)" fill="#ee7203"/>
        <path id="Tracciato_10" d="M-11.139,840.891c-.212-.719.36-.658.255-1.269-1.4-.133-1.243-1.813-1.534-3.046-2.617-2.129-3.844-5.634-5.3-8.912v25.1c4.156,7.12,8.347,14.2,12.715,21.11,1.78-.521,4.471-.136,6.655-.256.182-.774-.262-.922-.258-1.521a2.108,2.108,0,0,1-3.069-.508c.683-1.05,3.22-1.988,3.836-.254.823.054.623-.9,1.025-1.27.634.135.911.62,1.278,1.018.182.938-.9.633-1.278,1.014.373.816.723,1.649,1.79,1.777.2-.957-.312-1.214-.253-2.031.5-.5,1.46-.16,2.044,0-3.421-8.192-9.049-14.2-12.023-22.838-2.685-1.99-3.5-5.831-5.884-8.119" transform="translate(7.955 -796.708)" fill="#ee7203"/>
        <path id="Tracciato_11" d="M18.4,839.395a.976.976,0,0,1,1.791.509c-.4.37-2.031.525-1.791-.509m.769,3.3c-.511,0-.327.691-1.023.508a.955.955,0,0,1,.766-1.525c-.056.48.29.561.257,1.017m-5.883-9.389c-.13-1.056-1.33-1.054-2.046-1.524.491-1.241,1.822-1.38,1.534-2.791,1.078.452,2.653.416,3.835.763-.3,1.985-1.731,2.849-3.323,3.552M-.531,795.75c-2.145-.608-1.863,1.2-3.324,1.268-.646-.461-1.437-.776-1.537-1.777,1.719-.844,5.152-1.966,4.861.509m-4.093,7.866c.2-1.046-1.227-.478-1.021-1.524.225-.707,1.024-.84,1.79-1.016.963.977.049,1.964-.769,2.54m34.285,39.332c-4.7-7.865-8.7-16.408-13.818-23.854-.038-.631-.047-1.232.51-1.269C9.423,809.142,4.262,798.692-1.554,788.9c-4.525-1.009-9.2.557-13.045.254,3.149,6.521,6.008,13.324,10.745,18.27,4.544,9.787,9.416,19.249,16.115,26.9.033.731-.136,1.661.258,2.034a12.022,12.022,0,0,0,3.582-.764c.619.644-.256,1.236-.513,1.777-1.269.327-1.256-.615-2.3-.508-.323,1.334.49,1.542,1.277,1.777-.725,2.629,1.609,3.515,2.814,5.584,1.046,1.793,1.365,3.89,2.305,5.074.838,1.055,2.432,1.392,2.559,2.79.781-.184.928.259,1.532.254v3.551c1.633-.545.031-2.86,1.023-3.8,1.457.67,4.022.241,4.864,1.523.842-2.138,3.918-.553,4.858.253.212-3.385-2.475-7.027-4.858-9.39Z" transform="translate(6.555 -778.973)" fill="#ee7203"/>
        <path id="Tracciato_12" d="M132.1,851.333c.1-1.524-1.416-2.56-.766-3.807a4.583,4.583,0,0,1,2.3,3.3,5.827,5.827,0,0,1-1.536.508m-3.579-7.359c-.651.8-2.821,1.146-3.328,0-.339-2.236,3.731-2.413,3.328,0m6.9-1.522c-2.489-1.759-3.2-5.28-4.859-7.868-.314-1.155.7-.995.51-2.029-.814-.216-.791.4-1.277.509-8.85-12.965-15.351-28.257-24.817-40.6-.459-.033-.538.312-1.022.255v-3.3c-.72-.586-1.973-.08-2.813,0,.624,1.647-.353,3.924-.768,6.089-2.888-.782-6.377-.877-8.186-2.029,4.055,10.608,10.95,18.4,15.6,28.42.176,1.021-.246,1.451-.255,2.283a1.611,1.611,0,0,0,1.792,0c3.124,4.089,4.476,9.941,8.441,13.2.083,3.724,3.084,4.552,3.325,8.119a30.294,30.294,0,0,1,3.071,2.286c.426,3.384,4.211,3.432,5.116,6.343,1.811-.224,3.333.1,5.114-.505,1.464.282,0,1.9.768,2.791,1.543-.015,2.346-.967,3.584,0,1.134.109.555-1.478,1.536-1.523,1.009.263.982,2.047,2.3,1.266-1.288-2.948-3.328-5.157-4.094-8.625-1.9-.818-2.667-2.766-3.07-5.074" transform="translate(-41.394 -779.238)" fill="#ee7203"/>
        <path id="Tracciato_13" d="M573.523,790.718c-1.007-.069-.781,1.083-1.791,1.016-.985-.7-2.962-1.707-4.094-.761.355,1.171,1.625,1.436,2.048,2.537-.328,1.2-3.162.339-4.095.508-.358-1.286,1.177-.7,1.024-1.777a6.277,6.277,0,0,0-4.35-2.792c-.1,1.315-.089,2.249-1.535,1.776-.323-1.253.645-1.222,1.279-1.523-.731-1.133-3.869-1.423-5.116-.506,1.139,1.577,1.107,4.314,3.071,5.074V796.3c.376.131.643.372,1.024.507,3.859,7.009,8.22,14.194,12.279,21.57,1.305,2.373,2.13,4.662,4.092,6.342-.008,1.111-.048,1.889.77,2.539a36.249,36.249,0,0,1,6.945,7.413V810.654c-3.928-6.57-7.551-13.442-11.553-19.936" transform="translate(-250.042 -779.017)" fill="#ee7203"/>
        <path id="Tracciato_14" d="M550.431,851.2h1.024c.405,1.181-1.321.88-1.024,0m-5.37-9.391c.209.636.7,1,.765,1.779-1.2.359-1.792-1.477-.765-1.779M513.59,795.626a4.028,4.028,0,0,1,.513-2.284c1.3.318,2.966.271,3.326,1.521-1.162.374-2.575.492-3.839.763m-1.791-5.583c.679.258,1.454.418,1.537,1.268-1.242.322-2.229-.454-1.537-1.268m5.117,2.538c-.53-.15-1.681.313-1.788-.254.344-.346,1.784-.484,1.788.254m37.354,59.378c.167-4.906-3.738-7.278-4.606-11.925-.755-.351-1.036-1.173-1.79-1.524-9.421-16.708-18.947-33.314-28.91-49.482-4.206.04-9.63-.437-14.073,0,.81,2.174,2.163,5.963,4.351,7.614A435.265,435.265,0,0,0,533.8,838.766v-2.282c1.534.113.486,2.359.258,3.042,2.524,6.124,6.278,11.028,9.468,16.492,4.357.258,5.9-1.094,8.441-2.282.942.913-.992,1.575-.257,2.282,1.851.4,3.762-.2,6.142,0-.793-1.75-1.368-3.717-3.582-4.058" transform="translate(-226.693 -779.104)" fill="#ee7203"/>
        <path id="Tracciato_15" d="M493.822,845.6a1.445,1.445,0,0,1-.766-1.521c.33-.349,1.111-.25,1.79-.253.006.937-.115,1.746-1.024,1.774m-6.139,1.524c-.053-.284-.285-.4-.51-.508-.383-2.412,1.742-1.7,2.045-.253a1.465,1.465,0,0,1-1.535.761m-5.373-12.434a9.394,9.394,0,0,1-.512-2.285c1.126-.871,1.78.486,2.049,1.27-.843.008-.613,1.085-1.537,1.014m-18.419-41.869c-.608-1.472.9-1.638,2.045-1.016.036,1.05-1.267.77-2.045,1.016m34.284,55.065c0-1.009.994-1.043,1.787-1.27-.309-2.822-2.707-3.573-2.813-6.6-.489-.479-.462.149-1.278,0,.1-1.346-1.006-2.16,0-3.046-2.972-.775-2.2-5.265-4.86-6.343-.214-.718.359-.66.254-1.268.824-.058,1.081.445,2.044.25-.038-.293.06-.45.257-.507.516-1.438-1.223-.648-1.023-1.776.407-.529,1.79-.088,2.3-.508.251-2.685-3.794-4.114-4.86-1.778.251,1.412,2.152,2.362,1.279,4.061-2.117-.778-2.734-3.038-3.328-5.327-5.924-7.657-9.861-17.285-15.6-25.123-.58.124-1.306.5-1.793,0-1.1-.622-.332-1.642-.508-2.539-.493-2.51-2.322-4.538-3.072-6.85a5.311,5.311,0,0,0-2.3,0c-.627.6.383.473.256,1.268a2.57,2.57,0,0,1-1.537.761c-.872-.4-.7-1.079-.509-2.029-2.972-.762-6.822-.437-9.98,0,7.256,15.136,16.364,28.431,24.049,43.138.127.8-.461.9-.253,1.777.883-.2,1.079.282,1.533.508,2.626,1.877,3.307,5.683,6.14,7.359.935,3.936,4.029,6.938,4.35,10.656,1.317.726,1.735,2.339,2.812,3.3,1.757-.011,3.02.493,4.351-.251,1.038-.049-.271-1.417,1.022-1.524,1.673,1.69,5.335,2.3,8.7,1.524-1.17-2.986-3.28-5.038-4.092-8.375-1.5-.214-1.75.8-3.325.509" transform="translate(-203.344 -779.09)" fill="#ee7203"/>
        <path id="Tracciato_16" d="M388.728,844.518a3.982,3.982,0,0,1-1.534-3.04c1.775-.329,2.1.79,2.813,1.521-.261.673-.42,1.442-1.279,1.52m-1.794-3.8a3.25,3.25,0,0,1-2.3-1.523c.055-.285.282-.394.512-.507.816.383,2.314,1.124,1.787,2.03m-35.048-46.439a5,5,0,0,1,0-4.059c2.678-.894,1.81,3.795,0,4.059M396.4,846.55c-1.385-.995-2.292-2.46-3.582-3.551-.168.744-.812,1.859-1.791,1.013.151-1.007.747-1.852,1.791-1.268-.931-1.7-1.475-3.782-3.324-4.568-.84-5.891-5.7-9.878-7.165-15.985-7.817-10.1-13.648-22.16-20.467-33.244-1.347-.653-3.357-.013-4.605.255-.5.38.446,1.066-.514,1.268-1.27.017-.164-.744-.763-1.268-2.686-.271-6.22-.858-8.958-.255,3.152,4.614,5.247,9.16,8.445,14.72,2.515,4.366,5.223,7.1,5.629,11.925,3.8,1.306,4.011,6.169,6.905,8.374.275,2.878,2.587,5.582,4.093,7.613,1.168,1.573,1.566,3.848,2.561,5.074.281.349,1.047.383,1.281.764,1.531,2.541,1.954,5.612,4.091,7.864.99.223.909-.618,1.535-.761,1.077.541,1.434,1.792,1.28,3.554,1.9.217,2.3-.832,3.579,0,.141.921-.08,2.057.511,3.046.975.543,2.814-.836,3.585.253-.478.956-2,.778-3.072.507a4.666,4.666,0,0,1-2.044,2.03c.107,1.332.527,2.351,2.044,2.285.829-.479-.116-1.249.514-2.031h1.023c1.1.2-.233,1.23.512,1.775,1.407.3.194-2,1.278-2.028,1.214.065,1.385,1.163,1.79,2.028,1.427-.2,2.264.57,3.326,0a2.552,2.552,0,0,0-1.533-.759,10.95,10.95,0,0,0-.257-3.552,25.192,25.192,0,0,0,4.347.253c.143-1.156-.964-1.073-.768-2.284.242-1.537,2.572-1.005,3.073-2.283-.147-1.434-3.21-1.135-4.35-.761" transform="translate(-155.812 -779.023)" fill="#ee7203"/>
        <path id="Tracciato_17" d="M301.74,840.891c-.212-.719.36-.658.255-1.269-1.4-.133-1.243-1.813-1.534-3.046-2.617-2.129-3.844-5.634-5.3-8.912v25.1c4.155,7.12,8.347,14.2,12.715,21.11,1.78-.521,4.471-.136,6.654-.256.182-.774-.262-.922-.257-1.521a2.108,2.108,0,0,1-3.069-.508c.683-1.05,3.219-1.988,3.836-.254.823.054.623-.9,1.025-1.27.634.135.911.62,1.279,1.018.181.938-.9.633-1.279,1.014.373.816.723,1.649,1.79,1.777.2-.957-.312-1.214-.253-2.031.5-.5,1.46-.16,2.044,0-3.421-8.192-9.048-14.2-12.023-22.838-2.684-1.99-3.5-5.831-5.884-8.119" transform="translate(-132.526 -796.708)" fill="#ee7203"/>
        <path id="Tracciato_18" d="M331.279,839.395a.976.976,0,0,1,1.791.509c-.4.37-2.031.525-1.791-.509m.769,3.3c-.511,0-.327.691-1.023.508a.955.955,0,0,1,.766-1.525c-.056.48.29.561.257,1.017m-5.883-9.389c-.13-1.056-1.33-1.054-2.046-1.524.492-1.241,1.822-1.38,1.534-2.791,1.078.452,2.653.416,3.835.763-.3,1.985-1.731,2.849-3.323,3.552M312.347,795.75c-2.145-.608-1.863,1.2-3.324,1.268-.646-.461-1.437-.776-1.537-1.777,1.719-.844,5.152-1.966,4.861.509m-4.093,7.866c.2-1.046-1.227-.478-1.021-1.524.225-.707,1.024-.84,1.79-1.016.963.977.049,1.964-.769,2.54m34.285,39.332c-4.7-7.865-8.7-16.408-13.818-23.854-.038-.631-.047-1.232.51-1.269-6.932-8.683-12.092-19.133-17.908-28.928-4.525-1.009-9.2.557-13.045.254,3.149,6.521,6.008,13.324,10.745,18.27,4.544,9.787,9.416,19.249,16.115,26.9.033.731-.136,1.661.258,2.034a12.022,12.022,0,0,0,3.582-.764c.619.644-.256,1.236-.513,1.777-1.269.327-1.256-.615-2.3-.508-.323,1.334.49,1.542,1.277,1.777-.725,2.629,1.609,3.515,2.814,5.584,1.046,1.793,1.365,3.89,2.305,5.074.838,1.055,2.432,1.392,2.559,2.79.781-.184.928.259,1.532.254v3.551c1.633-.545.031-2.86,1.023-3.8,1.457.67,4.022.241,4.864,1.523.842-2.138,3.918-.553,4.859.253.211-3.385-2.475-7.027-4.859-9.39Z" transform="translate(-133.926 -778.973)" fill="#ee7203"/>
        <path id="Tracciato_19" d="M444.978,851.333c.1-1.524-1.416-2.56-.766-3.807a4.584,4.584,0,0,1,2.3,3.3,5.827,5.827,0,0,1-1.536.508m-3.579-7.359c-.651.8-2.821,1.146-3.328,0-.339-2.236,3.731-2.413,3.328,0m6.9-1.522c-2.489-1.759-3.2-5.28-4.859-7.868-.314-1.155.7-.995.51-2.029-.814-.216-.791.4-1.277.509-8.85-12.965-15.351-28.257-24.817-40.6-.459-.033-.538.312-1.022.255v-3.3c-.72-.586-1.973-.08-2.814,0,.624,1.647-.353,3.924-.768,6.089-2.888-.782-6.377-.877-8.186-2.029,4.055,10.608,10.95,18.4,15.6,28.42.176,1.021-.246,1.451-.255,2.283a1.611,1.611,0,0,0,1.792,0c3.124,4.089,4.476,9.941,8.441,13.2.083,3.724,3.084,4.552,3.325,8.119a30.3,30.3,0,0,1,3.071,2.286c.426,3.384,4.211,3.432,5.116,6.343,1.811-.224,3.333.1,5.114-.505,1.464.282,0,1.9.768,2.791,1.543-.015,2.346-.967,3.584,0,1.134.109.555-1.478,1.536-1.523,1.009.263.982,2.047,2.3,1.266-1.288-2.948-3.328-5.157-4.094-8.625-1.9-.818-2.667-2.766-3.07-5.074" transform="translate(-181.874 -779.238)" fill="#ee7203"/>
    </g>
</svg>
