<svg version="1.1" xmlns="http://www.w3.org/2000/svg" xmlns:xlink="http://www.w3.org/1999/xlink">

    <defs>

        <symbol id="trazi" viewBox="0 0 512 512">
            <path d="M508.5 468.9L387.1 347.5c-2.3-2.3-5.3-3.5-8.5-3.5h-13.2c31.5-36.5 50.6-84 50.6-136C416 93.1 322.9 0 208 0S0 93.1 0 208s93.1 208 208 208c52 0 99.5-19.1 136-50.6v13.2c0 3.2 1.3 6.2 3.5 8.5l121.4 121.4c4.7 4.7 12.3 4.7 17 0l22.6-22.6c4.7-4.7 4.7-12.3 0-17zM208 368c-88.4 0-160-71.6-160-160S119.6 48 208 48s160 71.6 160 160-71.6 160-160 160z"></path>
        </symbol>

        <symbol id="kosarica" viewBox="0 0 576 512">
            <path d="M551.991 64H144.28l-8.726-44.608C133.35 8.128 123.478 0 112 0H12C5.373 0 0 5.373 0 12v24c0 6.627 5.373 12 12 12h80.24l69.594 355.701C150.796 415.201 144 430.802 144 448c0 35.346 28.654 64 64 64s64-28.654 64-64a63.681 63.681 0 0 0-8.583-32h145.167a63.681 63.681 0 0 0-8.583 32c0 35.346 28.654 64 64 64 35.346 0 64-28.654 64-64 0-18.136-7.556-34.496-19.676-46.142l1.035-4.757c3.254-14.96-8.142-29.101-23.452-29.101H203.76l-9.39-48h312.405c11.29 0 21.054-7.869 23.452-18.902l45.216-208C578.695 78.139 567.299 64 551.991 64zM208 472c-13.234 0-24-10.766-24-24s10.766-24 24-24 24 10.766 24 24-10.766 24-24 24zm256 0c-13.234 0-24-10.766-24-24s10.766-24 24-24 24 10.766 24 24-10.766 24-24 24zm23.438-200H184.98l-31.31-160h368.548l-34.78 160z"></path>
        </symbol>

        <symbol id="korisnik" viewBox="0 0 448 512">
            <path d="M313.6 288c-28.7 0-42.5 16-89.6 16-47.1 0-60.8-16-89.6-16C60.2 288 0 348.2 0 422.4V464c0 26.5 21.5 48 48 48h352c26.5 0 48-21.5 48-48v-41.6c0-74.2-60.2-134.4-134.4-134.4zM416 464c0 8.8-7.2 16-16 16H48c-8.8 0-16-7.2-16-16v-41.6C32 365.9 77.9 320 134.4 320c19.6 0 39.1 16 89.6 16 50.4 0 70-16 89.6-16 56.5 0 102.4 45.9 102.4 102.4V464zM224 256c70.7 0 128-57.3 128-128S294.7 0 224 0 96 57.3 96 128s57.3 128 128 128zm0-224c52.9 0 96 43.1 96 96s-43.1 96-96 96-96-43.1-96-96 43.1-96 96-96z"></path>
        </symbol>

        <symbol id="email" viewBox="0 0 512 512">
            <path d="M256 8C118.941 8 8 118.919 8 256c0 137.058 110.919 248 248 248 52.925 0 104.68-17.078 147.092-48.319 5.501-4.052 6.423-11.924 2.095-17.211l-5.074-6.198c-4.018-4.909-11.193-5.883-16.307-2.129C346.93 457.208 301.974 472 256 472c-119.373 0-216-96.607-216-216 0-119.375 96.607-216 216-216 118.445 0 216 80.024 216 200 0 72.873-52.819 108.241-116.065 108.241-19.734 0-23.695-10.816-19.503-33.868l32.07-164.071c1.449-7.411-4.226-14.302-11.777-14.302h-12.421a12 12 0 0 0-11.781 9.718c-2.294 11.846-2.86 13.464-3.861 25.647-11.729-27.078-38.639-43.023-73.375-43.023-68.044 0-133.176 62.95-133.176 157.027 0 61.587 33.915 98.354 90.723 98.354 39.729 0 70.601-24.278 86.633-46.982-1.211 27.786 17.455 42.213 45.975 42.213C453.089 378.954 504 321.729 504 240 504 103.814 393.863 8 256 8zm-37.92 342.627c-36.681 0-58.58-25.108-58.58-67.166 0-74.69 50.765-121.545 97.217-121.545 38.857 0 58.102 27.79 58.102 65.735 0 58.133-38.369 122.976-96.739 122.976z"></path>
        </symbol>

        <symbol id="telefon" viewBox="0 0 512 512">
            <path d="M493.09 351.3L384.7 304.8a31.36 31.36 0 0 0-36.5 8.9l-44.1 53.9A350 350 0 0 1 144.5 208l53.9-44.1a31.35 31.35 0 0 0 8.9-36.49l-46.5-108.5A31.33 31.33 0 0 0 125 .81L24.2 24.11A31.05 31.05 0 0 0 0 54.51C0 307.8 205.3 512 457.49 512A31.23 31.23 0 0 0 488 487.7L511.19 387a31.21 31.21 0 0 0-18.1-35.7zM456.89 480C222.4 479.7 32.3 289.7 32.1 55.21l99.6-23 46 107.39-72.8 59.5C153.3 302.3 209.4 358.6 313 407.2l59.5-72.8 107.39 46z"></path>
        </symbol>

        <symbol id="tenisice" viewBox="0 0 640 512">
            <path d="M491.42 7.7C468.38 2.4 444.87 0 421.3 0c-9.15 0-18.31.36-27.46 1.05-27.3 2.07-54.1 8.33-80.31 16.12L256 32h-64c-35.35 0-64 32.98-64 70.86 0 37.87 28.65 68.57 64 68.57h64c60.2 0 79.94 16.73 104.73 34.29C389.3 225.94 430.54 240 465.46 240 555.82 240 640 205.71 640 137.14 640 88.69 600.9 32.89 491.42 7.7zM240 123.43h-48c-8.67 0-16-9.42-16-20.57C176 90.2 184.75 80 192 80h48v43.43zM465.46 192c-24.16 0-55.82-10.47-76.99-25.46l-4.08-2.91c-20.96-14.97-46.54-32.83-96.38-38.35V73.32l37.51-9.66.86-.22.85-.25c27.53-8.19 49.85-12.72 70.26-14.27 7.94-.6 15.88-.92 23.83-.92 20.71 0 40.69 2.18 59.36 6.48C562.75 73.37 592 109.57 592 137.14c0 34.34-64.34 54.86-126.54 54.86zm-128 80c-34.91 0-76.16 14.06-104.73 34.29-24.79 17.55-44.52 34.29-104.73 34.29H64c-35.35 0-64 30.7-64 68.57S28.65 480 64 480h64l57.53 14.82c26.21 7.79 53.01 14.05 80.31 16.12 9.14.69 18.31 1.05 27.46 1.05 23.57 0 47.09-2.4 70.12-7.7C472.9 479.11 512 423.3 512 374.86 512 306.29 427.82 272 337.46 272zM112 432H64c-7.25 0-16-10.2-16-22.86 0-11.15 7.33-20.57 16-20.57h48V432zm240.66 25.52c-18.68 4.3-38.65 6.48-59.36 6.48-7.94 0-15.89-.32-23.83-.92-20.4-1.55-42.73-6.08-70.26-14.27l-.85-.25-.86-.22-37.5-9.66v-51.97c49.84-5.52 75.43-23.37 96.38-38.34l4.08-2.91c21.18-14.99 52.84-25.46 77-25.46 62.2 0 126.54 20.52 126.54 54.86 0 27.57-29.25 63.77-111.34 82.66z"></path>
        </symbol>

    </defs>

</svg>