<svg version="1.1" xmlns="http://www.w3.org/2000/svg" xmlns:xlink="http://www.w3.org/1999/xlink">

    <defs>

        <symbol id="trazi" viewBox="0 0 512 512">
            <path d="M508.5 468.9L387.1 347.5c-2.3-2.3-5.3-3.5-8.5-3.5h-13.2c31.5-36.5 50.6-84 50.6-136C416 93.1 322.9 0 208 0S0 93.1 0 208s93.1 208 208 208c52 0 99.5-19.1 136-50.6v13.2c0 3.2 1.3 6.2 3.5 8.5l121.4 121.4c4.7 4.7 12.3 4.7 17 0l22.6-22.6c4.7-4.7 4.7-12.3 0-17zM208 368c-88.4 0-160-71.6-160-160S119.6 48 208 48s160 71.6 160 160-71.6 160-160 160z"></path>
        </symbol>

        <symbol id="kosarica" viewBox="0 0 576 512">
            <path d="M551.991 64H144.28l-8.726-44.608C133.35 8.128 123.478 0 112 0H12C5.373 0 0 5.373 0 12v24c0 6.627 5.373 12 12 12h80.24l69.594 355.701C150.796 415.201 144 430.802 144 448c0 35.346 28.654 64 64 64s64-28.654 64-64a63.681 63.681 0 0 0-8.583-32h145.167a63.681 63.681 0 0 0-8.583 32c0 35.346 28.654 64 64 64 35.346 0 64-28.654 64-64 0-18.136-7.556-34.496-19.676-46.142l1.035-4.757c3.254-14.96-8.142-29.101-23.452-29.101H203.76l-9.39-48h312.405c11.29 0 21.054-7.869 23.452-18.902l45.216-208C578.695 78.139 567.299 64 551.991 64zM208 472c-13.234 0-24-10.766-24-24s10.766-24 24-24 24 10.766 24 24-10.766 24-24 24zm256 0c-13.234 0-24-10.766-24-24s10.766-24 24-24 24 10.766 24 24-10.766 24-24 24zm23.438-200H184.98l-31.31-160h368.548l-34.78 160z"></path>
        </symbol>

        <symbol id="uredi" viewBox="0 0 512 512">
            <path d="M493.255 56.236l-37.49-37.49c-24.993-24.993-65.515-24.994-90.51 0L12.838 371.162.151 485.346c-1.698 15.286 11.22 28.203 26.504 26.504l114.184-12.687 352.417-352.417c24.992-24.994 24.992-65.517-.001-90.51zM164.686 347.313c6.249 6.249 16.379 6.248 22.627 0L368 166.627l30.059 30.059L174 420.745V386h-48v-48H91.255l224.059-224.059L345.373 144 164.686 324.687c-6.249 6.248-6.249 16.378 0 22.626zm-38.539 121.285l-58.995 6.555-30.305-30.305 6.555-58.995L63.255 366H98v48h48v34.745l-19.853 19.853zm344.48-344.48l-49.941 49.941-82.745-82.745 49.941-49.941c12.505-12.505 32.748-12.507 45.255 0l37.49 37.49c12.506 12.506 12.507 32.747 0 45.255z"></path>
        </symbol>

        <symbol id="izbrisi" viewBox="0 0 448 512">
            <path d="M296 432h16a8 8 0 0 0 8-8V152a8 8 0 0 0-8-8h-16a8 8 0 0 0-8 8v272a8 8 0 0 0 8 8zm-160 0h16a8 8 0 0 0 8-8V152a8 8 0 0 0-8-8h-16a8 8 0 0 0-8 8v272a8 8 0 0 0 8 8zM440 64H336l-33.6-44.8A48 48 0 0 0 264 0h-80a48 48 0 0 0-38.4 19.2L112 64H8a8 8 0 0 0-8 8v16a8 8 0 0 0 8 8h24v368a48 48 0 0 0 48 48h288a48 48 0 0 0 48-48V96h24a8 8 0 0 0 8-8V72a8 8 0 0 0-8-8zM171.2 38.4A16.1 16.1 0 0 1 184 32h80a16.1 16.1 0 0 1 12.8 6.4L296 64H152zM384 464a16 16 0 0 1-16 16H80a16 16 0 0 1-16-16V96h320zm-168-32h16a8 8 0 0 0 8-8V152a8 8 0 0 0-8-8h-16a8 8 0 0 0-8 8v272a8 8 0 0 0 8 8z"></path>
        </symbol>

        <symbol id="korisnik" viewBox="0 0 448 512">
            <path d="M313.6 288c-28.7 0-42.5 16-89.6 16-47.1 0-60.8-16-89.6-16C60.2 288 0 348.2 0 422.4V464c0 26.5 21.5 48 48 48h352c26.5 0 48-21.5 48-48v-41.6c0-74.2-60.2-134.4-134.4-134.4zM416 464c0 8.8-7.2 16-16 16H48c-8.8 0-16-7.2-16-16v-41.6C32 365.9 77.9 320 134.4 320c19.6 0 39.1 16 89.6 16 50.4 0 70-16 89.6-16 56.5 0 102.4 45.9 102.4 102.4V464zM224 256c70.7 0 128-57.3 128-128S294.7 0 224 0 96 57.3 96 128s57.3 128 128 128zm0-224c52.9 0 96 43.1 96 96s-43.1 96-96 96-96-43.1-96-96 43.1-96 96-96z"></path>
        </symbol>

        <symbol id="email" viewBox="0 0 512 512">
            <path d="M256 8C118.941 8 8 118.919 8 256c0 137.058 110.919 248 248 248 52.925 0 104.68-17.078 147.092-48.319 5.501-4.052 6.423-11.924 2.095-17.211l-5.074-6.198c-4.018-4.909-11.193-5.883-16.307-2.129C346.93 457.208 301.974 472 256 472c-119.373 0-216-96.607-216-216 0-119.375 96.607-216 216-216 118.445 0 216 80.024 216 200 0 72.873-52.819 108.241-116.065 108.241-19.734 0-23.695-10.816-19.503-33.868l32.07-164.071c1.449-7.411-4.226-14.302-11.777-14.302h-12.421a12 12 0 0 0-11.781 9.718c-2.294 11.846-2.86 13.464-3.861 25.647-11.729-27.078-38.639-43.023-73.375-43.023-68.044 0-133.176 62.95-133.176 157.027 0 61.587 33.915 98.354 90.723 98.354 39.729 0 70.601-24.278 86.633-46.982-1.211 27.786 17.455 42.213 45.975 42.213C453.089 378.954 504 321.729 504 240 504 103.814 393.863 8 256 8zm-37.92 342.627c-36.681 0-58.58-25.108-58.58-67.166 0-74.69 50.765-121.545 97.217-121.545 38.857 0 58.102 27.79 58.102 65.735 0 58.133-38.369 122.976-96.739 122.976z"></path>
        </symbol>

        <symbol id="telefon" viewBox="0 0 512 512">
            <path d="M493.09 351.3L384.7 304.8a31.36 31.36 0 0 0-36.5 8.9l-44.1 53.9A350 350 0 0 1 144.5 208l53.9-44.1a31.35 31.35 0 0 0 8.9-36.49l-46.5-108.5A31.33 31.33 0 0 0 125 .81L24.2 24.11A31.05 31.05 0 0 0 0 54.51C0 307.8 205.3 512 457.49 512A31.23 31.23 0 0 0 488 487.7L511.19 387a31.21 31.21 0 0 0-18.1-35.7zM456.89 480C222.4 479.7 32.3 289.7 32.1 55.21l99.6-23 46 107.39-72.8 59.5C153.3 302.3 209.4 358.6 313 407.2l59.5-72.8 107.39 46z"></path>
        </symbol>

        <symbol id="tenisice" viewBox="0 0 640 512">
            <path d="M337.46 272c-34.91 0-76.16 14.06-104.73 34.29-24.79 17.55-44.52 34.29-104.73 34.29H64c-35.35 0-64 30.7-64 68.57S28.65 480 64 480h64l57.53 14.82C217.42 504.3 250.17 512 293.3 512 403.84 512 512 456.84 512 374.86 512 306.29 427.82 272 337.46 272zM112 448H64c-17.05 0-32-18.16-32-38.86 0-20.17 14.36-36.57 32-36.57h48V448zm81.51 15.84L144 451.08v-79.11c55.33-2.95 80.75-20.66 103.08-36.62C338.33 270.38 480 316.73 480 374.86c0 62.15-121.49 137.92-286.49 88.98zM421.29 0c-43.42 0-76.17 7.78-107.77 17.17L256 32h-64c-35.35 0-64 32.98-64 70.86 0 37.87 28.65 68.57 64 68.57h64c60.2 0 79.94 16.73 104.73 34.29C389.3 225.94 430.54 240 465.46 240 555.82 240 640 205.71 640 137.14 640 55.84 533.12 0 421.29 0zM240 139.43h-48c-17.64 0-32-16.4-32-36.57C160 82.16 174.95 64 192 64h48v75.43zM465.46 208c-27.58 0-62.24-11.41-86.24-28.4-23.71-16.89-48.76-36.45-107.22-39.56V60.92l50.65-13.07C352.05 39.1 381.72 32 421.29 32 473.38 32 608 58.02 608 137.14c0 46.52-71.71 70.86-142.54 70.86z"></path>
        </symbol>

        <symbol id="cipele" viewBox="0 0 612 512">
            <path d="M415 247.8L352 232V128c17.7 0 32-14.3 32-32V32c0-17.7-14.3-32-32-32H32C14.3 0 0 14.3 0 32v434.7c0 8.5 3.4 16.6 9.4 22.6l13.3 13.3c6 6 14.1 9.4 22.6 9.4h37.5c8.5 0 16.6-3.4 22.6-9.4L128 480l22.6 22.6c6 6 14.1 9.4 22.6 9.4h37.5c8.5 0 16.6-3.4 22.6-9.4L256 480l22.6 22.6c6 6 14.1 9.4 22.6 9.4h37.5c8.5 0 16.6-3.4 22.6-9.4L384 480l22.6 22.6c6 6 14.1 9.4 22.6 9.4h37.5c8.5 0 16.6-3.4 22.6-9.4l13.3-13.3c6-6 9.4-14.1 9.4-22.6v-94.8c0-58.7-40-109.9-97-124.1zM32 32h320v64H32V32zm448 434.7L466.7 480h-37.5l-22.6-22.6c-6-6-14.1-9.4-22.6-9.4s-16.6 3.4-22.6 9.4L338.7 480h-37.5l-22.6-22.6c-6-6-14.1-9.4-22.6-9.4s-16.6 3.4-22.6 9.4L210.7 480h-37.5l-22.6-22.6c-6-6-14.1-9.4-22.6-9.4s-16.6 3.4-22.6 9.4L82.7 480H45.3L32 466.7V416h448v50.7zm0-82.7H32V128h288v32h-88c-4.4 0-8 3.6-8 8v16c0 4.4 3.6 8 8 8h88v32h-88c-4.4 0-8 3.6-8 8v16c0 4.4 3.6 8 8 8h88l87.3 22.8c42.8 10.7 72.7 49 72.7 93.1V384z"></path>
        </symbol>

        <symbol id="majica" viewBox="0 0 608 512">
            <path d="M606.4 111.6c-2.6-7.8-8-14.1-15.2-17.8L403.8 0l-7.9 11.1c-15.7 22-51.8 36.2-91.9 36.2s-76.2-14.2-91.9-36.2L204.2 0 16.8 93.8c-7.3 3.7-12.7 10-15.2 17.8-2.6 7.8-2 16.1 1.7 23.4l51.5 104c3.6 7.4 9.8 12.9 17.5 15.4 7.7 2.7 16 2 23.2-1.6l48.6-24v237.8c0 25 20.1 45.3 44.8 45.3h230.4c24.7 0 44.8-20.3 44.8-45.3V228.9l48.5 24c7.2 3.7 15.5 4.3 23.3 1.6 7.7-2.6 13.9-8.1 17.5-15.4L604.9 135c3.5-7.3 4.1-15.6 1.5-23.4zm-79.7 112.3L432 177.1v289.7c0 7.1-5.7 12.9-12.8 12.9H188.8c-7.1 0-12.8-5.8-12.8-12.9V177.1l-92.6 47.6-52.3-101.9 164.1-82.2c24 24.3 64.2 39 108.9 39S389 64.9 413 40.6L575.5 122l-48.8 101.9z"></path>
        </symbol>

        <symbol id="carapi" viewBox="0 0 512 512">
            <path d="M448 0h-95.83c-11.87 0-22.84 3.43-32.37 9.04C310.43 3.49 299.71 0 288 0h-95.83c-35.32 0-63.96 28.46-64 63.78C128.1 137.27 128 248 128 248l-79.77 59.39c-45.97 34.49-62.82 98.49-34.06 148.25C35.46 492.47 73.8 512 112.09 512c23.38 0 46.97-7.3 67.09-22.41l13.76-10.32c21.47 21.46 50.13 32.72 79.14 32.72 23.38 0 46.97-7.3 67.09-22.41l121.61-91.2a128.006 128.006 0 0 0 51.21-102.4V64C512 28.65 483.35 0 448 0zm-95.83 32H448c17.64 0 32 14.36 32 32v32H320.14l.03-32.18c.02-17.55 14.38-31.82 32-31.82zm-160 0H288c2.91 0 5.68.47 8.31 1.24-5.02 9.1-8.13 19.4-8.14 30.54L288.14 96h-128l.03-32.18c.02-17.55 14.38-31.82 32-31.82zm-18.32 421.6L159.97 464c-13.94 10.46-30.5 16-47.88 16-28.98 0-55.61-15.09-70.22-40.38-19.78-34.21-8.55-81.05 25.56-106.64L159.98 264l.13-136h128c-.06 60.63-.11 120-.11 120l-79.16 59.39c-45.37 34.03-62.18 96.75-34.99 146.21zM480 295.99c0 30.06-14.36 58.77-38.4 76.8L319.97 464c-13.94 10.46-30.5 16-47.88 16-28.98 0-55-15.09-69.62-40.38-19.78-34.21-8.55-81.05 25.56-106.64L319.98 264l.13-136H480v167.99z"></path>
        </symbol>

        <symbol id="rukavice" viewBox="0 0 448 512">
            <path d="M420.9 197.6c-13.5-11.4-30.6-17.6-48.2-17.6-21.9 0-42.5 9.5-56.9 26.1l-20.4-89C279.7 48.1 219.8 0 149.8 0c-11.3 0-22.7 1.3-33.8 3.9C35.6 22.6-14.7 103.9 3.8 185l44.6 195c.4 1.9 1.1 3.7 1.6 5.6-9.4 3.1-18 11.8-18 22.4v80c0 13.3 10.7 24 23.8 24h303.1c13.1 0 25.2-10.7 25.2-24v-80c0-11.4-9.4-20.4-19.9-22.9l66.4-80.4c26.6-32.2 22.2-80.2-9.7-107.1zM352 480H64v-64h288v64zm54.2-195.8L323.7 384H82.9c-1.2-3.7-2.7-7.4-3.6-11.3l-44.6-195C20.1 113.8 59.7 49.8 123.1 35c8.8-2 17.7-3.1 26.6-3.1 55.2 0 102.4 37.9 114.8 92.3L292 244.6l7.2 31.4 20.5-24.8 19.4-23.5c8.3-10.1 20.5-15.8 33.5-15.8 10.2 0 20 3.6 27.9 10.2 18.6 15.6 21.1 43.4 5.7 62.1z"></path>
        </symbol>

        <symbol id="akcija" viewBox="0 0 384 512">
            <path d="M192 95.95c-52.93 0-96 43.07-96 96s43.07 96 96 96 96-43.07 96-96-43.06-96-96-96zm0 160c-35.29 0-64-28.71-64-64s28.71-64 64-64 64 28.71 64 64-28.71 64-64 64zm175.63 16.38c14.06-14.31 19.59-35.33 14.47-54.86-6.39-24.2-6.39-20.45 0-44.69 5.13-19.52-.41-40.53-14.47-54.86-17.58-17.72-15.57-14.69-21.91-38.59-5.15-19.63-20.37-35.08-39.72-40.34-23.3-6.32-20.62-4.58-37.75-22.22-14.22-14.42-35.12-20.08-54.53-14.82-23.5 6.51-20.1 6.41-43.47 0-19.25-5.31-40.28.4-54.5 14.85-17.3 17.67-14.21 15.77-37.72 22.19-19.37 5.26-34.59 20.71-39.75 40.32-6.36 24.04-4.38 20.87-21.91 38.62C2.31 132.25-3.22 153.27 1.91 172.8c6.39 24.17 6.39 20.42 0 44.69-5.13 19.52.41 40.53 14.47 54.86 17.58 17.72 15.57 14.69 21.91 38.59 2.01 7.64 5.91 14.36 10.62 20.38L1.2 448.7c-4.31 10.57 3.51 22.04 14.79 22.04.55 0-2.91.12 53.32-2.03L105.56 507c3.22 3.4 7.42 5 11.58 5 6.17 0 12.23-3.53 14.86-9.96l52.45-129.03a23.346 23.346 0 0 1 15.11-.01L252 502.04c2.62 6.43 8.69 9.96 14.86 9.96 4.16 0 8.36-1.6 11.58-5l36.25-38.28c56.23 2.15 52.77 2.03 53.32 2.03 11.28 0 19.1-11.47 14.79-22.04l-47.7-117.37c4.71-6.02 8.61-12.74 10.62-20.37 6.36-24.06 4.38-20.89 21.91-38.64zM111.72 466.95c-22.59-23.86-16.56-17.49-29.13-30.77-18.3.7-9.45.36-42.41 1.63l35.55-87.48c.79.26 1.47.75 2.28.97 21.87 5.86 20.46 4.6 31.59 15.91 9.94 10.14 22.79 15.57 35.96 16.5l-33.84 83.24zm232.11-29.15c-32.91-1.26-24.13-.92-42.41-1.62-12.56 13.27-6.54 6.91-29.13 30.77l-33.9-83.4c13.21-.91 26.06-6.21 36.02-16.35 11.41-11.61 9.83-10.19 31.59-15.91.81-.22 1.49-.71 2.28-.96l35.55 87.47zm-29.05-134.99c-2.25 8.58-8.84 15.33-17.22 17.61-23.62 6.25-28.39 6.45-45.97 24.37-8 8.11-20.19 9.61-29.75 3.48-18.13-11.44-41.56-11.45-59.69.02-9.5 6.03-21.75 4.62-29.75-3.52-17.38-17.68-22.12-17.95-45.97-24.36-8.38-2.28-14.97-9.03-17.22-17.62-8.06-30.63-7.53-30.19-30.03-52.87-6.19-6.31-8.63-15.62-6.34-24.31 8.15-30.47 8.2-30.48 0-60.95-2.28-8.69.16-18 6.34-24.3 22.42-22.7 21.94-22.06 30.03-52.91 2.25-8.58 8.84-15.33 17.22-17.59 30.79-8.41 29.68-7.8 52.13-30.62 5.2-5.31 13.82-8.96 23.28-6.41 30.46 8.38 29.85 8.4 60.28 0 8.19-2.27 17.19.19 23.31 6.37 22.29 22.87 21.87 22.44 52.16 30.66 8.34 2.27 14.94 9.02 17.19 17.61 8.06 30.63 7.53 30.19 30.03 52.87 6.19 6.31 8.63 15.62 6.34 24.31-8.19 30.52-8.16 30.54 0 60.95 2.28 8.69-.16 18-6.34 24.3-22.41 22.71-21.94 22.06-30.03 52.91z"></path>
        </symbol>

        <symbol id="strelica_lijevo" viewBox="0 0 256 512">
            <path d="M238.475 475.535l7.071-7.07c4.686-4.686 4.686-12.284 0-16.971L50.053 256 245.546 60.506c4.686-4.686 4.686-12.284 0-16.971l-7.071-7.07c-4.686-4.686-12.284-4.686-16.97 0L10.454 247.515c-4.686 4.686-4.686 12.284 0 16.971l211.051 211.05c4.686 4.686 12.284 4.686 16.97-.001z"></path>
        </symbol>
        <symbol id="strelica_lijevo_duplo" viewBox="0 0 384 512">
            <path d="M349.5 475.5l-211.1-211c-4.7-4.7-4.7-12.3 0-17l211.1-211c4.7-4.7 12.3-4.7 17 0l7.1 7.1c4.7 4.7 4.7 12.3 0 17L178.1 256l195.5 195.5c4.7 4.7 4.7 12.3 0 17l-7.1 7.1c-4.7 4.6-12.3 4.6-17-.1zm-111 0l7.1-7.1c4.7-4.7 4.7-12.3 0-17L50.1 256 245.5 60.5c4.7-4.7 4.7-12.3 0-17l-7.1-7.1c-4.7-4.7-12.3-4.7-17 0l-211.1 211c-4.7 4.7-4.7 12.3 0 17l211.1 211c4.8 4.8 12.4 4.8 17.1.1z"></path>
        </symbol>
        <symbol id="strelica_lijevo_duplo2" viewBox="0 0 320 512">
            <path d="M153.1 247.5l117.8-116c4.7-4.7 12.3-4.7 17 0l7.1 7.1c4.7 4.7 4.7 12.3 0 17L192.7 256l102.2 100.4c4.7 4.7 4.7 12.3 0 17l-7.1 7.1c-4.7 4.7-12.3 4.7-17 0L153 264.5c-4.6-4.7-4.6-12.3.1-17zm-128 17l117.8 116c4.7 4.7 12.3 4.7 17 0l7.1-7.1c4.7-4.7 4.7-12.3 0-17L64.7 256l102.2-100.4c4.7-4.7 4.7-12.3 0-17l-7.1-7.1c-4.7-4.7-12.3-4.7-17 0L25 247.5c-4.6 4.7-4.6 12.3.1 17z"></path>
        </symbol>
        <symbol id="strelica_desno" viewBox="0 0 256 512">
            <path d="M17.525 36.465l-7.071 7.07c-4.686 4.686-4.686 12.284 0 16.971L205.947 256 10.454 451.494c-4.686 4.686-4.686 12.284 0 16.971l7.071 7.07c4.686 4.686 12.284 4.686 16.97 0l211.051-211.05c4.686-4.686 4.686-12.284 0-16.971L34.495 36.465c-4.686-4.687-12.284-4.687-16.97 0z"></path>
        </symbol>
        <symbol id="strelica_desno_duplo" viewBox="0 0 384 512">
            <path d="M34.5 36.5l211.1 211c4.7 4.7 4.7 12.3 0 17l-211.1 211c-4.7 4.7-12.3 4.7-17 0l-7.1-7.1c-4.7-4.7-4.7-12.3 0-17L205.9 256 10.5 60.5c-4.7-4.7-4.7-12.3 0-17l7.1-7.1c4.6-4.6 12.2-4.6 16.9.1zm111 0l-7.1 7.1c-4.7 4.7-4.7 12.3 0 17L333.9 256 138.5 451.5c-4.7 4.7-4.7 12.3 0 17l7.1 7.1c4.7 4.7 12.3 4.7 17 0l211.1-211c4.7-4.7 4.7-12.3 0-17l-211.1-211c-4.8-4.8-12.4-4.8-17.1-.1z"></path>
        </symbol>
        <symbol id="strelica_desno_duplo2" viewBox="0 0 320 512">
            <path d="M166.9 264.5l-117.8 116c-4.7 4.7-12.3 4.7-17 0l-7.1-7.1c-4.7-4.7-4.7-12.3 0-17L127.3 256 25.1 155.6c-4.7-4.7-4.7-12.3 0-17l7.1-7.1c4.7-4.7 12.3-4.7 17 0l117.8 116c4.6 4.7 4.6 12.3-.1 17zm128-17l-117.8-116c-4.7-4.7-12.3-4.7-17 0l-7.1 7.1c-4.7 4.7-4.7 12.3 0 17L255.3 256 153.1 356.4c-4.7 4.7-4.7 12.3 0 17l7.1 7.1c4.7 4.7 12.3 4.7 17 0l117.8-116c4.6-4.7 4.6-12.3-.1-17z"></path>
        </symbol>

    </defs>

</svg>