<svg version="1.1" xmlns="http://www.w3.org/2000/svg" xmlns:xlink="http://www.w3.org/1999/xlink">

    <defs>

        <symbol id="potvrda" viewBox="0 0 448 512">
            <path d="M413.505 91.951L133.49 371.966l-98.995-98.995c-4.686-4.686-12.284-4.686-16.971 0L6.211 284.284c-4.686 4.686-4.686 12.284 0 16.971l118.794 118.794c4.686 4.686 12.284 4.686 16.971 0l299.813-299.813c4.686-4.686 4.686-12.284 0-16.971l-11.314-11.314c-4.686-4.686-12.284-4.686-16.97 0z"></path>
        </symbol>

        <symbol id="potvrda_duplo" viewBox="0 0 448 512">
            <path d="M444.96 159l-12.16-11c-2.03-2.67-4.72-4-8.11-4s-6.08 1.33-8.11 4L131.77 428 31.42 329c-2.03-2.67-4.72-4-8.11-4s-6.08 1.33-8.11 4L3.04 340C1.01 342.67 0 345.67 0 349s1.01 6 3.04 8l120.62 119c2.69 2.67 5.57 4 8.62 4s5.92-1.33 8.62-4l304.07-300c2.03-2 3.04-4.67 3.04-8s-1.02-6.33-3.05-9zM127.17 284.03c2.65 2.65 5.48 3.97 8.47 3.97s5.82-1.32 8.47-3.97L365.01 63.8c1.99-2 2.99-4.65 2.99-7.96s-1-6.29-2.99-8.94l-11.96-10.93c-1.99-2.65-4.64-3.97-7.97-3.97s-5.98 1.32-7.97 3.97L135.14 236.34l-72.25-72.03c-1.99-2.65-4.64-3.97-7.97-3.97s-5.98 1.32-7.97 3.97l-11.96 10.93C33 177.89 32 180.87 32 184.18s1 5.96 2.99 7.95l92.18 91.9z"></path>
        </symbol>

        <symbol id="trazi" viewBox="0 0 512 512">
            <path d="M508.5 481.6l-129-129c-2.3-2.3-5.3-3.5-8.5-3.5h-10.3C395 312 416 262.5 416 208 416 93.1 322.9 0 208 0S0 93.1 0 208s93.1 208 208 208c54.5 0 104-21 141.1-55.2V371c0 3.2 1.3 6.2 3.5 8.5l129 129c4.7 4.7 12.3 4.7 17 0l9.9-9.9c4.7-4.7 4.7-12.3 0-17zM208 384c-97.3 0-176-78.7-176-176S110.7 32 208 32s176 78.7 176 176-78.7 176-176 176z"></path>
        </symbol>

    </defs>

</svg>