<svg version="1.1" xmlns="http://www.w3.org/2000/svg" xmlns:xlink="http://www.w3.org/1999/xlink">

    <defs>

        <symbol id="trazi" viewBox="0 0 512 512">
            <path d="M508.5 468.9L387.1 347.5c-2.3-2.3-5.3-3.5-8.5-3.5h-13.2c31.5-36.5 50.6-84 50.6-136C416 93.1 322.9 0 208 0S0 93.1 0 208s93.1 208 208 208c52 0 99.5-19.1 136-50.6v13.2c0 3.2 1.3 6.2 3.5 8.5l121.4 121.4c4.7 4.7 12.3 4.7 17 0l22.6-22.6c4.7-4.7 4.7-12.3 0-17zM208 368c-88.4 0-160-71.6-160-160S119.6 48 208 48s160 71.6 160 160-71.6 160-160 160z"></path>
        </symbol>

        <symbol id="kosarica" viewBox="0 0 576 512">
            <path d="M551.991 64H144.28l-8.726-44.608C133.35 8.128 123.478 0 112 0H12C5.373 0 0 5.373 0 12v24c0 6.627 5.373 12 12 12h80.24l69.594 355.701C150.796 415.201 144 430.802 144 448c0 35.346 28.654 64 64 64s64-28.654 64-64a63.681 63.681 0 0 0-8.583-32h145.167a63.681 63.681 0 0 0-8.583 32c0 35.346 28.654 64 64 64 35.346 0 64-28.654 64-64 0-18.136-7.556-34.496-19.676-46.142l1.035-4.757c3.254-14.96-8.142-29.101-23.452-29.101H203.76l-9.39-48h312.405c11.29 0 21.054-7.869 23.452-18.902l45.216-208C578.695 78.139 567.299 64 551.991 64zM208 472c-13.234 0-24-10.766-24-24s10.766-24 24-24 24 10.766 24 24-10.766 24-24 24zm256 0c-13.234 0-24-10.766-24-24s10.766-24 24-24 24 10.766 24 24-10.766 24-24 24zm23.438-200H184.98l-31.31-160h368.548l-34.78 160z"></path>
        </symbol>

        <symbol id="korisnik" viewBox="0 0 448 512">
            <path d="M313.6 288c-28.7 0-42.5 16-89.6 16-47.1 0-60.8-16-89.6-16C60.2 288 0 348.2 0 422.4V464c0 26.5 21.5 48 48 48h352c26.5 0 48-21.5 48-48v-41.6c0-74.2-60.2-134.4-134.4-134.4zM416 464c0 8.8-7.2 16-16 16H48c-8.8 0-16-7.2-16-16v-41.6C32 365.9 77.9 320 134.4 320c19.6 0 39.1 16 89.6 16 50.4 0 70-16 89.6-16 56.5 0 102.4 45.9 102.4 102.4V464zM224 256c70.7 0 128-57.3 128-128S294.7 0 224 0 96 57.3 96 128s57.3 128 128 128zm0-224c52.9 0 96 43.1 96 96s-43.1 96-96 96-96-43.1-96-96 43.1-96 96-96z"></path>
        </symbol>

        <symbol id="email" viewBox="0 0 512 512">
            <path d="M256 8C118.941 8 8 118.919 8 256c0 137.058 110.919 248 248 248 52.925 0 104.68-17.078 147.092-48.319 5.501-4.052 6.423-11.924 2.095-17.211l-5.074-6.198c-4.018-4.909-11.193-5.883-16.307-2.129C346.93 457.208 301.974 472 256 472c-119.373 0-216-96.607-216-216 0-119.375 96.607-216 216-216 118.445 0 216 80.024 216 200 0 72.873-52.819 108.241-116.065 108.241-19.734 0-23.695-10.816-19.503-33.868l32.07-164.071c1.449-7.411-4.226-14.302-11.777-14.302h-12.421a12 12 0 0 0-11.781 9.718c-2.294 11.846-2.86 13.464-3.861 25.647-11.729-27.078-38.639-43.023-73.375-43.023-68.044 0-133.176 62.95-133.176 157.027 0 61.587 33.915 98.354 90.723 98.354 39.729 0 70.601-24.278 86.633-46.982-1.211 27.786 17.455 42.213 45.975 42.213C453.089 378.954 504 321.729 504 240 504 103.814 393.863 8 256 8zm-37.92 342.627c-36.681 0-58.58-25.108-58.58-67.166 0-74.69 50.765-121.545 97.217-121.545 38.857 0 58.102 27.79 58.102 65.735 0 58.133-38.369 122.976-96.739 122.976z"></path>
        </symbol>

        <symbol id="telefon" viewBox="0 0 512 512">
            <path d="M493.09 351.3L384.7 304.8a31.36 31.36 0 0 0-36.5 8.9l-44.1 53.9A350 350 0 0 1 144.5 208l53.9-44.1a31.35 31.35 0 0 0 8.9-36.49l-46.5-108.5A31.33 31.33 0 0 0 125 .81L24.2 24.11A31.05 31.05 0 0 0 0 54.51C0 307.8 205.3 512 457.49 512A31.23 31.23 0 0 0 488 487.7L511.19 387a31.21 31.21 0 0 0-18.1-35.7zM456.89 480C222.4 479.7 32.3 289.7 32.1 55.21l99.6-23 46 107.39-72.8 59.5C153.3 302.3 209.4 358.6 313 407.2l59.5-72.8 107.39 46z"></path>
        </symbol>

        <symbol id="tenisice" viewBox="0 0 640 512">
            <path d="M337.46 272c-34.91 0-76.16 14.06-104.73 34.29-24.79 17.55-44.52 34.29-104.73 34.29H64c-35.35 0-64 30.7-64 68.57S28.65 480 64 480h64l57.53 14.82C217.42 504.3 250.17 512 293.3 512 403.84 512 512 456.84 512 374.86 512 306.29 427.82 272 337.46 272zM112 448H64c-17.05 0-32-18.16-32-38.86 0-20.17 14.36-36.57 32-36.57h48V448zm81.51 15.84L144 451.08v-79.11c55.33-2.95 80.75-20.66 103.08-36.62C338.33 270.38 480 316.73 480 374.86c0 62.15-121.49 137.92-286.49 88.98zM421.29 0c-43.42 0-76.17 7.78-107.77 17.17L256 32h-64c-35.35 0-64 32.98-64 70.86 0 37.87 28.65 68.57 64 68.57h64c60.2 0 79.94 16.73 104.73 34.29C389.3 225.94 430.54 240 465.46 240 555.82 240 640 205.71 640 137.14 640 55.84 533.12 0 421.29 0zM240 139.43h-48c-17.64 0-32-16.4-32-36.57C160 82.16 174.95 64 192 64h48v75.43zM465.46 208c-27.58 0-62.24-11.41-86.24-28.4-23.71-16.89-48.76-36.45-107.22-39.56V60.92l50.65-13.07C352.05 39.1 381.72 32 421.29 32 473.38 32 608 58.02 608 137.14c0 46.52-71.71 70.86-142.54 70.86z"></path>
        </symbol>

        <symbol id="cipele" viewBox="0 0 612 512">
            <path d="M415 247.8L352 232V128c17.7 0 32-14.3 32-32V32c0-17.7-14.3-32-32-32H32C14.3 0 0 14.3 0 32v434.7c0 8.5 3.4 16.6 9.4 22.6l13.3 13.3c6 6 14.1 9.4 22.6 9.4h37.5c8.5 0 16.6-3.4 22.6-9.4L128 480l22.6 22.6c6 6 14.1 9.4 22.6 9.4h37.5c8.5 0 16.6-3.4 22.6-9.4L256 480l22.6 22.6c6 6 14.1 9.4 22.6 9.4h37.5c8.5 0 16.6-3.4 22.6-9.4L384 480l22.6 22.6c6 6 14.1 9.4 22.6 9.4h37.5c8.5 0 16.6-3.4 22.6-9.4l13.3-13.3c6-6 9.4-14.1 9.4-22.6v-94.8c0-58.7-40-109.9-97-124.1zM32 32h320v64H32V32zm448 434.7L466.7 480h-37.5l-22.6-22.6c-6-6-14.1-9.4-22.6-9.4s-16.6 3.4-22.6 9.4L338.7 480h-37.5l-22.6-22.6c-6-6-14.1-9.4-22.6-9.4s-16.6 3.4-22.6 9.4L210.7 480h-37.5l-22.6-22.6c-6-6-14.1-9.4-22.6-9.4s-16.6 3.4-22.6 9.4L82.7 480H45.3L32 466.7V416h448v50.7zm0-82.7H32V128h288v32h-88c-4.4 0-8 3.6-8 8v16c0 4.4 3.6 8 8 8h88v32h-88c-4.4 0-8 3.6-8 8v16c0 4.4 3.6 8 8 8h88l87.3 22.8c42.8 10.7 72.7 49 72.7 93.1V384z"></path>
        </symbol>

        <symbol id="majica" viewBox="0 0 608 512">
            <path d="M606.4 111.6c-2.6-7.8-8-14.1-15.2-17.8L403.8 0l-7.9 11.1c-15.7 22-51.8 36.2-91.9 36.2s-76.2-14.2-91.9-36.2L204.2 0 16.8 93.8c-7.3 3.7-12.7 10-15.2 17.8-2.6 7.8-2 16.1 1.7 23.4l51.5 104c3.6 7.4 9.8 12.9 17.5 15.4 7.7 2.7 16 2 23.2-1.6l48.6-24v237.8c0 25 20.1 45.3 44.8 45.3h230.4c24.7 0 44.8-20.3 44.8-45.3V228.9l48.5 24c7.2 3.7 15.5 4.3 23.3 1.6 7.7-2.6 13.9-8.1 17.5-15.4L604.9 135c3.5-7.3 4.1-15.6 1.5-23.4zm-79.7 112.3L432 177.1v289.7c0 7.1-5.7 12.9-12.8 12.9H188.8c-7.1 0-12.8-5.8-12.8-12.9V177.1l-92.6 47.6-52.3-101.9 164.1-82.2c24 24.3 64.2 39 108.9 39S389 64.9 413 40.6L575.5 122l-48.8 101.9z"></path>
        </symbol>

        <symbol id="carapi" viewBox="0 0 512 512">
            <path d="M448 0h-95.83c-11.87 0-22.84 3.43-32.37 9.04C310.43 3.49 299.71 0 288 0h-95.83c-35.32 0-63.96 28.46-64 63.78C128.1 137.27 128 248 128 248l-79.77 59.39c-45.97 34.49-62.82 98.49-34.06 148.25C35.46 492.47 73.8 512 112.09 512c23.38 0 46.97-7.3 67.09-22.41l13.76-10.32c21.47 21.46 50.13 32.72 79.14 32.72 23.38 0 46.97-7.3 67.09-22.41l121.61-91.2a128.006 128.006 0 0 0 51.21-102.4V64C512 28.65 483.35 0 448 0zm-95.83 32H448c17.64 0 32 14.36 32 32v32H320.14l.03-32.18c.02-17.55 14.38-31.82 32-31.82zm-160 0H288c2.91 0 5.68.47 8.31 1.24-5.02 9.1-8.13 19.4-8.14 30.54L288.14 96h-128l.03-32.18c.02-17.55 14.38-31.82 32-31.82zm-18.32 421.6L159.97 464c-13.94 10.46-30.5 16-47.88 16-28.98 0-55.61-15.09-70.22-40.38-19.78-34.21-8.55-81.05 25.56-106.64L159.98 264l.13-136h128c-.06 60.63-.11 120-.11 120l-79.16 59.39c-45.37 34.03-62.18 96.75-34.99 146.21zM480 295.99c0 30.06-14.36 58.77-38.4 76.8L319.97 464c-13.94 10.46-30.5 16-47.88 16-28.98 0-55-15.09-69.62-40.38-19.78-34.21-8.55-81.05 25.56-106.64L319.98 264l.13-136H480v167.99z"></path>
        </symbol>

        <symbol id="rukavice" viewBox="0 0 448 512">
            <path d="M420.9 197.6c-13.5-11.4-30.6-17.6-48.2-17.6-21.9 0-42.5 9.5-56.9 26.1l-20.4-89C279.7 48.1 219.8 0 149.8 0c-11.3 0-22.7 1.3-33.8 3.9C35.6 22.6-14.7 103.9 3.8 185l44.6 195c.4 1.9 1.1 3.7 1.6 5.6-9.4 3.1-18 11.8-18 22.4v80c0 13.3 10.7 24 23.8 24h303.1c13.1 0 25.2-10.7 25.2-24v-80c0-11.4-9.4-20.4-19.9-22.9l66.4-80.4c26.6-32.2 22.2-80.2-9.7-107.1zM352 480H64v-64h288v64zm54.2-195.8L323.7 384H82.9c-1.2-3.7-2.7-7.4-3.6-11.3l-44.6-195C20.1 113.8 59.7 49.8 123.1 35c8.8-2 17.7-3.1 26.6-3.1 55.2 0 102.4 37.9 114.8 92.3L292 244.6l7.2 31.4 20.5-24.8 19.4-23.5c8.3-10.1 20.5-15.8 33.5-15.8 10.2 0 20 3.6 27.9 10.2 18.6 15.6 21.1 43.4 5.7 62.1z"></path>
        </symbol>

    </defs>

</svg>