<?xml version="1.0" encoding="utf-8"?>
<!-- Generator: Adobe Illustrator 23.0.1, SVG Export Plug-In . SVG Version: 6.00 Build 0)  -->
<svg version="1.1" id="Layer_1" xmlns="http://www.w3.org/2000/svg" xmlns:xlink="http://www.w3.org/1999/xlink" x="0px" y="0px"
	 viewBox="0 0 488.3 749.7" style="enable-background:new 0 0 488.3 749.7;" xml:space="preserve">
<style type="text/css">
	.st0{fill:#121A1D;}
</style>
<path id="Tracciato_531" class="st0" d="M422.9,385.2c-17.2-7.7-128.9-138.6-174.7-161.9c-1.2-8.4-2-16.2-1.9-20.6
	c0.6-14,4.3-29.8,15.7-41.4c11.4-11.6,29.7-34.7,30.7-56.4c1-21.7-14.5-52.2-14.5-52.2s1.2,91.3-48.3,92.6
	c-21.3,0.6-58.7-28.1-62.8-62.4C161.2,33.1,115.7,0,115.7,0l0.5,2.6c3.8,7,29.4,56,13.8,76l0,0.2l-0.9,0.9l-0.1,0.2h0
	c-18.4,17.8-61.7,7.1-61.7,7.1s11.3,17.2,32.7,19.3c18.7,1.8,95.3,18.2,111.3,95.1c2.4,11.4-2.8,38.1-3,39l-1.5-0.4
	c-9.3-4.9-77-64-102-77.7c-29.2-15.9-47.9,57.8-11.4,126c17.4,32.4,48.4,50.7,48.4,50.7s-24.6,57.9-54.6,102.1
	C59.4,481.9,0,535.7,0,535.7s83.6-6.4,103.2-37.1c40.6-63.8,63.2-160.2,63.2-160.2s-34.8-17-51.3-52.3
	c-16.5-35.2-24.5-111.4-3.3-93.3c21.2,18.1,64.7,76.4,103.6,87.3c24.2,6.7,13.1-16,34.9,0c19.6,14.4,151.2,114.7,161.3,119.9
	c30.1,15.4,51.3,16.8,33.5,48.1c-13,22.8-73.4,31.1-73.4,31.1l-136.6,11c0,0,27,191.1,15.2,223.7c-11.9,32.6-23.6,35.6-23.6,35.6
	s64.8,4.2,72.9-31.9c11.9-52.7-23.5-191.9-23.5-191.9s80.2-19,112.8-25.1c82.5-15.4,88.5-31.2,95.9-54.5
	C493.5,418.9,490,415.4,422.9,385.2"/>
</svg>
