<?xml version="1.0" encoding="utf-8"?>
<svg version="1.1" xmlns="http://www.w3.org/2000/svg" viewBox="0 0 480 634">
<style type="text/css">
    .st0{opacity:0.63;fill:#ECECEC;}
</style>
<path class="st0" d="M103.2,498.6c40.6-63.8,63.2-160.2,63.2-160.2s-34.8-17-51.3-52.3c-16.5-35.2-24.5-111.4-3.3-93.3
	s64.7,76.4,103.6,87.3c24.2,6.7,13.1-16,34.9,0c19.6,14.4,151.2,114.7,161.3,119.9c30.1,15.4,51.3,16.8,33.5,48.1
	c-13,22.8-73.4,31.1-73.4,31.1l-136.6,11c0,0,11.1,78.8,16,143.8h46.3c-7.5-53.7-21.3-108.2-21.3-108.2s80.2-19,112.8-25.1
	c82.5-15.4,88.5-31.2,95.9-54.5c8.7-27.3,5.2-30.8-61.9-61.1l0,0c-17.2-7.7-128.9-138.6-174.7-161.9c-1.2-8.4-2-16.2-1.9-20.6
	c0.6-14,4.3-29.8,15.7-41.4c11.4-11.6,29.7-34.7,30.7-56.4s-14.5-52.2-14.5-52.2s1.2,91.3-48.3,92.6c-21.3,0.6-58.7-28.1-62.8-62.4
	C161.2,33.1,115.7,0,115.7,0l0.5,2.6c3.8,7,29.4,56,13.8,76v0.2l-0.9,0.9l-0.1,0.2l0,0C110.6,97.7,67.3,87,67.3,87
	s11.3,17.2,32.7,19.3c18.7,1.8,95.3,18.2,111.3,95.1c2.4,11.5-2.8,38.1-3,39l-1.5-0.4c-9.3-4.9-77-64-102-77.7
	c-29.2-15.9-47.9,57.8-11.4,126c17.4,32.4,48.4,50.7,48.4,50.7s-24.6,57.9-54.6,102.1C59.4,481.9,0,535.7,0,535.7
	S83.6,529.3,103.2,498.6z"/>
</svg>
