<svg xmlns="http://www.w3.org/2000/svg" width="214.427" height="64.592" viewBox="0 0 214.427 64.592">
  <path fill="#ec6c00" d="M270.519,142.4a5.554,5.554,0,0,0-11.1,0,5.552,5.552,0,0,0,11.1,0m-1.383.033a4.138,4.138,0,0,1-4.121,4.283,4.32,4.32,0,1,1,4.121-4.283m-2.9.131V142.5a1.39,1.39,0,0,0,1.119-1.254,1.5,1.5,0,0,0-.526-1.186,3.352,3.352,0,0,0-1.876-.4,11.046,11.046,0,0,0-2.078.164v5.4h1.254v-2.174h.593c.691,0,1.021.264,1.117.857a4.664,4.664,0,0,0,.431,1.316h1.352a4.1,4.1,0,0,1-.4-1.352,1.6,1.6,0,0,0-.988-1.317m-.231-1.186c0,.56-.559.79-1.252.79h-.593v-1.548a2.966,2.966,0,0,1,.693-.067c.79,0,1.152.328,1.152.824m-20.294,49.14h12.245V139.011H245.711ZM243.754,171.4a18.968,18.968,0,1,0-18.872,19.055A18.944,18.944,0,0,0,243.754,171.4m-12.689,0a6.236,6.236,0,1,1-6.183-6.73,6.441,6.441,0,0,1,6.183,6.73m-40.207,19.119h12.373V152.471H190.857Zm0-40.378h12.373V139.012H190.857Zm-1.83,15.66v-13.4c-3.788,0-5.049.062-7.826,1.634v-1.634H168.954v38.049H181.2V171.4c0-2.389,1.514-6.352,7.826-5.6m-22.471,5.975c0-10.944-6.124-18.3-18.433-18.3a7.636,7.636,0,0,0-6.059,2.2v-3.27H128.683v49.184h13.382v-13.46a9.579,9.579,0,0,0,6.123,2.138c11.93,0,18.368-7.738,18.368-18.49m-11.994.251a6.47,6.47,0,1,1-6.439-6.477,6.551,6.551,0,0,1,6.439,6.477m-39.324,18.364h11.235l-.884-31.319c-.315-4.9-6.5-6.73-13.823-6.792a58.678,58.678,0,0,0-11.426,1.132l-1.83,10c5.3-.628,5.933-1.006,10.666-1.006a13.9,13.9,0,0,1,2.589.251,2.809,2.809,0,0,1,2.462,3.019,8.008,8.008,0,0,0-2.462-.817c-.7-.062-1.514-.189-2.4-.189-7.829,0-13.128,6.037-13.128,13.333s4.543,12.955,12.938,12.955a7.52,7.52,0,0,0,2.589-.377,3.941,3.941,0,0,0,2.462-2.451Zm.189-12.891a3.7,3.7,0,0,1-3.661,3.648A3.659,3.659,0,0,1,108.1,177.5a3.6,3.6,0,0,1,3.661-3.585,3.643,3.643,0,0,1,3.661,3.585m-19.19,12.891L85.824,163.54l10.413-23.521H79.509l-8.963,20.126V140.019H56.092v50.376H70.546v-23.52l8.963,23.52Z" transform="translate(-56.092 -136.999)"/>
</svg>